<?xml version="1.0" encoding="utf-8"?>
<!-- Generator: Adobe Illustrator 27.5.0, SVG Export Plug-In . SVG Version: 6.00 Build 0)  -->
<svg version="1.1" id="Capa_1" xmlns="http://www.w3.org/2000/svg" xmlns:xlink="http://www.w3.org/1999/xlink" x="0px" y="0px"
	 viewBox="0 0 425.197 425.197" style="enable-background:new 0 0 425.197 425.197;" xml:space="preserve">
<rect y="0" style="fill:#FFFFFF;" width="425.197" height="425.197"/>
<defs>
	<filter id="Adobe_OpacityMaskFilter" filterUnits="userSpaceOnUse" x="91.061" y="351.617" width="255.075" height="32.619">
		<feFlood  style="flood-color:white;flood-opacity:1" result="back"/>
		<feBlend  in="SourceGraphic" in2="back" mode="normal"/>
	</filter>
</defs>
<mask maskUnits="userSpaceOnUse" x="91.061" y="351.617" width="255.075" height="32.619" id="SVGID_1_">
	<g style="filter:url(#Adobe_OpacityMaskFilter);">
		<defs>
			
				<filter id="Adobe_OpacityMaskFilter_00000136385169802763763350000011398130829082771872_" filterUnits="userSpaceOnUse" x="91.061" y="351.617" width="255.075" height="32.619">
				<feFlood  style="flood-color:white;flood-opacity:1" result="back"/>
				<feBlend  in="SourceGraphic" in2="back" mode="normal"/>
			</filter>
		</defs>
		<mask maskUnits="userSpaceOnUse" x="91.061" y="351.617" width="255.075" height="32.619" id="SVGID_1_">
			<g style="filter:url(#Adobe_OpacityMaskFilter_00000136385169802763763350000011398130829082771872_);">
			</g>
		</mask>
		
			<radialGradient id="SVGID_00000142895376858705389540000015309496522226248114_" cx="-568.6957" cy="380.2756" r="85.2903" gradientTransform="matrix(1.4955 0 0 0.1912 1069.0826 295.2173)" gradientUnits="userSpaceOnUse">
			<stop  offset="0.0129" style="stop-color:#FFFFFF"/>
			<stop  offset="0.0842" style="stop-color:#F8F8F8"/>
			<stop  offset="0.1891" style="stop-color:#E4E4E4"/>
			<stop  offset="0.3148" style="stop-color:#C4C4C4"/>
			<stop  offset="0.4566" style="stop-color:#969696"/>
			<stop  offset="0.6118" style="stop-color:#5C5C5C"/>
			<stop  offset="0.7759" style="stop-color:#171717"/>
			<stop  offset="0.8263" style="stop-color:#000000"/>
		</radialGradient>
		<path style="mask:url(#SVGID_1_);fill:url(#SVGID_00000142895376858705389540000015309496522226248114_);" d="M346.136,367.925
			c0,9.008-57.101,16.31-127.538,16.31c-70.437,0-127.537-7.302-127.537-16.31c0-9.007,57.101-16.309,127.537-16.309
			C289.035,351.617,346.136,358.918,346.136,367.925z"/>
	</g>
</mask>
<radialGradient id="SVGID_00000034808125987562450750000010493900532456106924_" cx="-568.6957" cy="380.2756" r="85.2903" gradientTransform="matrix(1.4955 0 0 0.1912 1069.0826 295.2173)" gradientUnits="userSpaceOnUse">
	<stop  offset="0.0129" style="stop-color:#A1846D"/>
	<stop  offset="0.117" style="stop-color:#A68A74"/>
	<stop  offset="0.2702" style="stop-color:#B29B88"/>
	<stop  offset="0.4536" style="stop-color:#C7B6A8"/>
	<stop  offset="0.6585" style="stop-color:#E4DCD5"/>
	<stop  offset="0.8263" style="stop-color:#FFFFFF"/>
</radialGradient>
<path style="opacity:0.6;fill:url(#SVGID_00000034808125987562450750000010493900532456106924_);" d="M346.136,367.925
	c0,9.008-57.101,16.31-127.538,16.31c-70.437,0-127.537-7.302-127.537-16.31c0-9.007,57.101-16.309,127.537-16.309
	C289.035,351.617,346.136,358.918,346.136,367.925z"/>
<g>
	<g>
		<g>
			<path style="fill:#8A5031;" d="M94.394,115.308c11.981,11.115,102.638,111.388,92.722,122.146
				c-9.909,10.752-116.647-72.08-128.628-83.202c-11.982-11.113-13.652-28.844-3.738-39.594
				C64.663,103.902,82.417,104.19,94.394,115.308z"/>
			<g>
				<path style="fill:#F7DAA2;" d="M107.459,128.931c-4.989-5.412-9.004-9.631-11.509-12.115
					c-7.612,2.884-15.139,7.857-21.708,14.55c-7.15,7.283-12.159,15.515-14.696,23.837c2.482,2.182,6.98,5.889,12.883,10.566
					c0.586-7.882,5.002-16.634,12.32-24.094C91.721,134.568,100.05,129.99,107.459,128.931z"/>
			</g>
			<path style="fill:#D6BFBE;" d="M94.394,115.308c-9.436-8.757-22.441-10.764-32.39-5.977
				c18.344,8.807,33.676,24.611,47.069,40.059c12.591,14.518,24.799,29.16,38.699,42.479c14.486,13.882,29.371,27.558,39.799,44.843
				C193.515,222.808,106.139,126.205,94.394,115.308z"/>
			<path style="opacity:0.2;fill:#FFFFFF;" d="M48.917,125.951c-2.114,9.579,1.211,20.548,9.57,28.301
				c9.029,8.382,71.877,57.487,106.532,76.568C129.789,193.35,72.672,172.036,48.917,125.951z"/>
		</g>
		<g>
			<path style="fill:#8A5031;" d="M142.233,91.841c8.667,13.837,69.92,133.958,57.4,141.552
				c-12.516,7.596-94.075-100.213-102.748-114.045c-8.668-13.837-5.536-31.213,6.979-38.803
				C116.383,72.952,133.566,78.008,142.233,91.841z"/>
			<g>
				<path style="fill:#F7DAA2;" d="M124.352,111.971c9.696-4.261,19.793-5.341,27.222-3.052c-3.79-7.271-6.828-12.848-8.605-15.864
					c-7.855,0.012-16.309,1.827-24.536,5.439c-9.803,4.303-17.802,10.453-23.281,17.671c0.521,1.075,1.082,2.142,1.735,3.183
					c1.17,1.869,3.682,5.461,7.164,10.243C107.559,122.556,114.856,116.143,124.352,111.971z"/>
			</g>
			<path style="opacity:0.2;fill:#FFFFFF;" d="M147.57,176.478c-9.78-16.607-20.13-32.579-30.971-48.514
				c-8.773-12.9-15.13-26.605-19.729-40.904c-6.308,8.77-6.691,21.581,0.015,32.289c5.805,9.257,44.249,60.6,72.804,91.277
				C162.267,199.281,154.455,188.174,147.57,176.478z"/>
			<path style="fill:#D6BFBE;" d="M118.708,77.11c9.461,25.456,22.376,49.47,38.08,71.813
				c15.878,22.594,31.834,43.459,42.569,68.382c-9.43-34.967-50.176-114.369-57.124-125.464
				C136.71,83.029,127.733,77.799,118.708,77.11z"/>
		</g>
		<g>
			<path style="fill:#8A5031;" d="M178.471,77.115c6.099,15.071,45.165,143.341,31.367,148.445
				c-13.792,5.102-75.238-114.895-81.336-129.969c-6.104-15.066,0.137-31.415,13.939-36.521
				C156.237,53.971,172.365,62.053,178.471,77.115z"/>
			<g>
				<path style="fill:#F7DAA2;" d="M158.589,89.359c10.207-1.015,19.837,0.928,26.208,5.12c-2.577-8.439-4.622-14.659-5.669-17.33
					c-0.136-0.341-0.303-0.66-0.447-0.995c-6.616-1.656-13.96-2.193-21.544-1.443c-11.96,1.183-22.485,5.282-30.258,11.569
					c0.266,2.932,0.939,5.908,2.093,8.844c0.559,1.417,1.59,3.757,3.016,6.833C137.2,95.202,147.009,90.508,158.589,89.359z"/>
			</g>
			<path style="opacity:0.2;fill:#FFFFFF;" d="M157.173,140.196c-6.106-13.37-14.506-27.396-17.582-41.884
				c-3.363-15.8,1.698-28.882,9.924-40.872c-2.101,0.17-4.191,0.571-6.235,1.305c-13.852,4.966-20.258,21.253-14.308,36.379
				c3.334,8.476,23.691,50.026,43.392,84.081C167.795,165.994,162.898,152.734,157.173,140.196z"/>
			<path style="fill:#D6BFBE;" d="M159.378,58.484c5.977,13.384,4.982,28.471,6.852,42.75c2.836,21.578,5.494,45.422,13.218,65.849
				c7.727,20.428,18.845,39.167,31.324,57.015c8.175-16.447-26.011-132.618-31.643-146.947
				C175.441,67.787,167.883,61.071,159.378,58.484z"/>
		</g>
		<g>
			<path style="fill:#8A5031;" d="M227.573,76.048c1.227,16.015-0.736,148.354-15.624,148.806
				c-14.882,0.455-37.063-131.136-38.287-147.168c-1.233-16.019,9.843-29.372,24.733-29.824
				C213.28,47.411,226.345,60.024,227.573,76.048z"/>
			<g>
				<path style="fill:#F7DAA2;" d="M227.871,93.757c0.032-8.566-0.085-14.912-0.298-17.709c-0.023-0.28-0.075-0.55-0.104-0.83
					c-6.864-3.724-15.098-6.173-23.987-6.96c-11.047-0.971-21.356,0.719-29.797,4.702c-0.116,1.545-0.149,3.118-0.023,4.727
					c0.154,2.073,0.667,6.088,1.466,11.489c6.458-4.873,16.306-7.2,27.065-6.252C212.999,83.872,222.526,87.963,227.871,93.757z"/>
			</g>
			<path style="opacity:0.2;fill:#FFFFFF;" d="M189.239,141.376c-2.854-16.464-2.995-33.959-4.123-50.651
				c-0.877-13.015-1.436-26.861,1.947-39.662c-8.744,4.927-14.293,15.06-13.401,26.624c0.831,10.889,11.328,75.039,22.646,114.959
				C200.026,176.115,192.006,157.364,189.239,141.376z"/>
			<path style="fill:#D6BFBE;" d="M200.346,47.907c15.206,14.422,25.405,34.255,22.022,55.47
				c-1.497,9.398-4.258,18.336-6.639,27.527c-3.126,12.053-4.047,24.037-3.893,36.456c0.242,19.095,1.838,38.148,1.123,57.231
				c13.963-6.262,15.813-132.898,14.613-148.543C226.396,60.733,214.398,48.56,200.346,47.907z"/>
		</g>
		<g>
			<path style="fill:#8A5031;" d="M279.449,94.719c-3.613,15.479-45.092,139.668-59.583,135.576
				c-14.486-4.097,3.506-134.94,7.109-150.424c3.615-15.479,18.284-24.7,32.775-20.603C274.23,63.369,283.056,79.239,279.449,94.719
				z"/>
			<g>
				<path style="fill:#F7DAA2;" d="M255.493,80.173c-9.422-3.671-18.875-4.98-27.393-3.942c-0.434,1.174-0.828,2.378-1.125,3.639
					c-0.47,2.029-1.191,6.059-2.054,11.51c7.132-2.21,16.287-1.562,25.424,1.999c10.83,4.219,19.224,11.577,21.899,19.203
					l2.082-0.731c2.181-6.768,3.804-12.132,4.669-15.348C273.362,89.722,265.196,83.955,255.493,80.173z"/>
			</g>
			<path style="opacity:0.2;fill:#FFFFFF;" d="M228.906,119.068c4.751-20.42,9.153-43.543,21.689-60.637
				c-11.07,0.979-20.771,9.251-23.619,21.439c-2.099,9.025-9.089,57.252-11.682,96.721
				C219.066,157.367,224.401,138.434,228.906,119.068z"/>
			<path style="fill:#D6BFBE;" d="M261.181,59.757c8.03,13.795,1.397,36.994-4.26,52.809c-5.848,16.352-11.704,32.693-17.554,49.045
				c-7.747,21.653-15.502,43.784-15.16,66.986c17.064-14.958,51.94-119.741,55.242-133.878
				C282.933,79.762,274.795,64.475,261.181,59.757z"/>
		</g>
		<g>
			<path style="fill:#8A5031;" d="M325.765,108.742c-6.588,14.259-71.895,126.15-85.482,119.285
				c-13.585-6.864,29.68-129.901,36.269-144.164c6.593-14.257,22.953-20.245,36.537-13.375
				C326.679,77.352,332.358,94.479,325.765,108.742z"/>
			<g>
				<path style="fill:#F7DAA2;" d="M303.866,91.702c-9.06-5.141-18.512-7.793-27.311-7.845c0,0-0.003,0.003-0.005,0.005
					c-1.077,2.331-3.132,7.57-5.755,14.716c7.588-1.59,17.083,0.348,26.076,5.449c10.108,5.736,17.355,14.226,18.904,22.157
					l0.566-0.11c3.725-6.512,6.609-11.762,8.295-15.046C320.035,103.588,312.835,96.791,303.866,91.702z"/>
			</g>
			<path style="opacity:0.2;fill:#FFFFFF;" d="M275.495,126.725c6.359-15.987,14.009-36.408,8.512-52.622
				c-3.047,2.574-5.636,5.826-7.456,9.759c-5.006,10.839-31.179,84.461-37.503,122.213
				C257.292,183.619,264.956,153.219,275.495,126.725z"/>
			<path style="fill:#D6BFBE;" d="M313.088,70.487c-3.179-1.607-6.507-2.484-9.828-2.741c3.685,5.431,6.2,11.563,6.712,18.455
				c0.998,13.473-13.89,33.649-19.298,45.86c-15.793,35.667-23.03,66.482-48.562,96.218c16.781-2.006,77.322-105.835,83.652-119.537
				C332.358,94.479,326.679,77.352,313.088,70.487z"/>
		</g>
		<g>
			<path style="fill:#8A5031;" d="M350.289,142.34c-8.945,10.319-99.674,96.598-109.688,87.686
				c-10.015-8.914,64.48-109.652,73.416-119.975c8.935-10.312,24.304-11.445,34.311-2.525
				C358.344,116.441,359.222,132.027,350.289,142.34z"/>
			<g>
				<path style="fill:#F7DAA2;" d="M316.649,107.47c-0.921,0.792-1.811,1.636-2.632,2.582c-1.291,1.493-3.967,4.893-7.554,9.625
					c8.147,0.73,17.031,6.168,24.02,14.851c4.787,5.944,7.95,12.529,9.166,18.607c5.335-5.194,9.139-9.064,10.64-10.796
					c0.224-0.257,0.41-0.531,0.62-0.795c-2.177-5.459-5.33-10.867-9.39-15.906C334.36,116.747,325.664,110.503,316.649,107.47z"/>
			</g>
			<path style="opacity:0.2;fill:#FFFFFF;" d="M285.915,163.24c6.228-8.591,13.367-16.333,20.16-24.459
				c7.264-8.68,15.666-18.346,19.114-29.341c0.815-2.61,1.132-4.944,1.061-7.063c-4.572,1.227-8.86,3.786-12.233,7.676
				c-6.077,7.018-42.454,55.833-61.973,89.164C267.041,192.537,276.336,176.456,285.915,163.24z"/>
			<path style="fill:#D6BFBE;" d="M316.438,155.004c-14.538,14.076-26.228,34.983-42.388,47.12
				c-11.479,8.623-23.779,16.876-34.052,27c0.15,0.356,0.339,0.668,0.604,0.903c10.014,8.912,100.742-77.368,109.688-87.686
				c7.94-9.17,8.112-22.5,1.011-31.61C350.658,130.302,330.979,140.926,316.438,155.004z"/>
		</g>
		<g>
			<path style="fill:#8A5031;" d="M366.725,182.909c-11.022,8.03-108.297,65.418-116.27,54.63
				c-7.974-10.788,76.357-85.668,87.385-93.707c11.023-8.03,26.425-5.789,34.392,5.004
				C380.215,159.622,377.741,174.88,366.725,182.909z"/>
			<g>
				<path style="fill:#F7DAA2;" d="M339.96,142.445c-0.721,0.42-1.429,0.883-2.12,1.387c-1.754,1.279-5.362,4.251-10.153,8.379
					c6.096,2.329,12.206,6.912,17.305,13.245c6.579,8.167,10.124,17.542,9.682,25.137c5.896-3.583,10.197-6.333,12.052-7.684
					c0.505-0.368,0.97-0.764,1.437-1.161c-1.604-8.478-5.771-17.282-12.13-25.184C351.243,150.619,345.757,145.872,339.96,142.445z"
					/>
			</g>
			<path style="opacity:0.2;fill:#FFFFFF;" d="M314.116,170.977c15.615-11.996,32.455-22.15,50.938-28.548
				c-8.211-4.83-18.934-4.63-27.214,1.402c-8.03,5.852-54.866,47.105-76.694,73.286
				C281.802,206.839,295.896,184.977,314.116,170.977z"/>
			<path style="fill:#D6BFBE;" d="M338.884,191.764c-26.549,19.697-57.091,34.711-88.047,46.174
				c10.238,8.828,105.017-47.108,115.888-55.029c10.772-7.852,13.351-22.611,5.989-33.348
				C368.323,166.215,353.216,181.129,338.884,191.764z"/>
		</g>
	</g>
	<path style="fill:#966340;" d="M304.669,256.934c0,25.465-37.563,46.11-83.896,46.11c-46.336,0-83.905-20.646-83.905-46.11
		c0-25.467,37.569-59.997,83.905-59.997C267.107,196.936,304.669,231.467,304.669,256.934z"/>
	<g>
		<g>
			<g>
				<path style="fill:#F39200;" d="M207.494,356.655c0,0-0.283-2.09-0.608-5.226c-0.171-1.568-0.378-3.396-0.55-5.356
					c-0.199-1.96-0.339-4.049-0.503-6.14c-0.138-2.09-0.542-4.181-0.573-6.14c-0.012-1.96,0.266-3.788,0.574-5.355
					c0.155-0.784,0.334-1.502,0.523-2.139c0.186-0.637,0.366-1.192,0.541-1.649c0.339-0.914,0.618-1.436,0.618-1.436h0.479
					c0,0,0.278,0.523,0.616,1.438c0.175,0.458,0.355,1.013,0.539,1.649c0.188,0.637,0.365,1.355,0.521,2.14
					c0.306,1.567,0.58,3.397,0.566,5.356c-0.034,1.959-0.441,4.049-0.581,6.139c-0.167,2.09-0.31,4.18-0.512,6.139
					c-0.174,1.96-0.383,3.788-0.556,5.355c-0.329,3.135-0.615,5.225-0.615,5.225H207.494z"/>
			</g>
		</g>
		<g>
			<g>
				<path style="fill:#F39200;" d="M192.614,365.179c0,0,0.522-1.034,1.52-2.449c0.51-0.697,1.115-1.516,1.851-2.326
					c0.708-0.842,1.575-1.635,2.475-2.424c0.451-0.393,0.917-0.787,1.363-1.204c0.476-0.386,0.952-0.767,1.478-1.025
					c0.545-0.234,1.085-0.414,1.64-0.485c0.559-0.069,1.084-0.103,1.579-0.073c0.506,0.05,0.964,0.137,1.361,0.248
					c0.395,0.097,0.749,0.285,1.021,0.425c0.55,0.293,0.829,0.551,0.829,0.551l0.008,0.478c0,0-0.272,0.304-0.688,0.678
					c-0.102,0.09-0.213,0.189-0.335,0.297c-0.12,0.09-0.246,0.192-0.377,0.326c-0.264,0.249-0.55,0.491-0.856,0.71
					c-0.305,0.251-0.63,0.514-0.979,0.727c-0.345,0.238-0.713,0.489-1.13,0.643c-0.416,0.177-0.883,0.309-1.38,0.413
					c-0.484,0.148-0.989,0.289-1.464,0.503c-0.469,0.225-0.955,0.427-1.411,0.681c-0.467,0.244-0.927,0.484-1.371,0.716
					c-0.891,0.48-1.718,0.968-2.427,1.397c-1.414,0.87-2.347,1.507-2.347,1.507L192.614,365.179z"/>
			</g>
		</g>
		<g>
			<g>
				<path style="fill:#F39200;" d="M200.847,368.608c0,0-0.36-0.952-0.623-2.453c-0.071-0.376-0.114-0.787-0.171-1.228
					c-0.057-0.441-0.058-0.909-0.086-1.401c0.017-0.492-0.014-1.01,0.066-1.536c0.066-0.529,0.126-1.072,0.273-1.624
					c0.104-0.553,0.263-1.125,0.441-1.709c0.14-0.587,0.492-1.153,0.829-1.649c0.427-0.463,0.92-0.865,1.447-1.123
					c0.563-0.23,1.088-0.437,1.6-0.476c0.52-0.028,0.985,0.003,1.378,0.072c0.394,0.094,0.72,0.263,0.977,0.4
					c0.512,0.281,0.752,0.535,0.752,0.535l0.008,0.478c0,0-0.235,0.31-0.555,0.688c-0.155,0.202-0.347,0.379-0.516,0.612
					c-0.159,0.261-0.314,0.508-0.473,0.715c-0.15,0.228-0.247,0.514-0.395,0.692c-0.118,0.24-0.234,0.471-0.438,0.639
					c-0.157,0.251-0.467,0.36-0.727,0.633c-0.275,0.242-0.563,0.517-0.766,0.874c-0.234,0.328-0.415,0.713-0.605,1.091
					c-0.189,0.377-0.349,0.782-0.529,1.164c-0.301,0.79-0.589,1.562-0.783,2.245c-0.415,1.368-0.628,2.33-0.628,2.33
					L200.847,368.608z"/>
			</g>
		</g>
		<g>
			<g>
				<path style="fill:#F39200;" d="M209.002,370.039c0,0-0.68-0.655-1.541-1.768c-0.426-0.559-0.911-1.227-1.371-1.991
					c-0.48-0.756-0.901-1.616-1.285-2.531c-0.203-0.471-0.406-0.942-0.605-1.407c-0.209-0.478-0.366-0.991-0.399-1.511
					c-0.034-0.52,0.052-1.053,0.214-1.546c0.165-0.503,0.395-0.97,0.688-1.37c0.29-0.401,0.643-0.724,0.977-0.958
					c0.182-0.112,0.349-0.206,0.5-0.286c0.173-0.067,0.335-0.114,0.474-0.154c0.275-0.082,0.529-0.073,0.688-0.069
					c0.159,0.013,0.244,0.02,0.244,0.02l0.299,0.373c0,0,0.003,0.082,0.009,0.236c0.017,0.156,0.007,0.335,0.051,0.567
					c0.063,0.449,0.223,0.94,0.424,1.407c0.093,0.235,0.189,0.48,0.259,0.734c0.093,0.266,0.145,0.538,0.148,0.851
					c0.005,0.311-0.078,0.657-0.148,1.043c-0.074,0.38-0.109,0.789-0.101,1.195c0.021,0.815,0.135,1.652,0.21,2.465
					c0.1,0.805,0.201,1.577,0.311,2.238c0.227,1.342,0.377,2.236,0.377,2.236L209.002,370.039z"/>
			</g>
		</g>
		<path style="fill:#5F3C28;" d="M233.378,303.058c-0.004,13.192-25.237,23.872-25.237,23.872s-24.546-5.854-24.53-29.359
			c0.006-13.192,10.633-18.423,24.563-18.414C222.099,279.164,233.386,289.867,233.378,303.058z"/>
	</g>
	<g>
		<g>
			<g>
				<path style="fill:#F39200;" d="M240.933,358.501c0,0-0.411-2.069-0.927-5.179c-0.267-1.554-0.584-3.367-0.875-5.313
					c-0.318-1.944-0.586-4.021-0.878-6.098c-0.265-2.078-0.796-4.139-0.947-6.093c-0.131-1.955,0.034-3.797,0.246-5.38
					c0.107-0.792,0.242-1.52,0.392-2.167c0.146-0.647,0.292-1.211,0.439-1.679c0.282-0.933,0.529-1.471,0.529-1.471l0.477-0.029
					c0,0,0.311,0.505,0.703,1.397c0.202,0.446,0.416,0.989,0.639,1.614c0.227,0.624,0.447,1.331,0.65,2.103
					c0.4,1.546,0.787,3.355,0.893,5.312c0.086,1.957-0.192,4.068-0.205,6.163c-0.039,2.096-0.054,4.191-0.136,6.159
					c-0.055,1.966-0.15,3.804-0.229,5.379c-0.136,3.149-0.295,5.252-0.295,5.252L240.933,358.501z"/>
			</g>
		</g>
		<g>
			<g>
				<path style="fill:#F39200;" d="M256.431,366.429c0,0-0.97-0.581-2.433-1.364c-0.733-0.386-1.588-0.823-2.506-1.25
					c-0.457-0.205-0.931-0.418-1.411-0.633c-0.47-0.226-0.968-0.399-1.449-0.595c-0.487-0.186-0.999-0.296-1.491-0.415
					c-0.503-0.075-0.977-0.178-1.401-0.331c-0.426-0.129-0.809-0.358-1.167-0.575c-0.361-0.192-0.701-0.435-1.02-0.668
					c-0.319-0.201-0.619-0.425-0.896-0.658c-0.139-0.126-0.271-0.22-0.396-0.303c-0.128-0.1-0.246-0.193-0.352-0.277
					c-0.438-0.349-0.727-0.636-0.727-0.636l-0.021-0.478c0,0,0.264-0.273,0.795-0.599c0.264-0.157,0.605-0.365,0.994-0.485
					c0.39-0.134,0.842-0.249,1.344-0.329c0.492-0.06,1.019-0.057,1.58-0.021c0.559,0.037,1.108,0.185,1.666,0.386
					c0.539,0.227,1.038,0.579,1.535,0.935c0.471,0.39,0.959,0.755,1.433,1.121c0.944,0.733,1.858,1.473,2.614,2.271
					c0.783,0.764,1.436,1.546,1.986,2.21c1.08,1.353,1.663,2.354,1.663,2.354L256.431,366.429z"/>
			</g>
		</g>
		<g>
			<g>
				<path style="fill:#F39200;" d="M248.277,370.005c0,0-0.27-0.947-0.765-2.288c-0.235-0.669-0.568-1.423-0.915-2.193
					c-0.204-0.371-0.388-0.766-0.599-1.131c-0.213-0.366-0.416-0.739-0.669-1.052c-0.225-0.344-0.527-0.602-0.816-0.827
					c-0.275-0.257-0.591-0.349-0.764-0.589c-0.212-0.156-0.342-0.379-0.474-0.612c-0.159-0.169-0.272-0.448-0.436-0.667
					c-0.171-0.198-0.341-0.435-0.514-0.686c-0.184-0.223-0.384-0.388-0.552-0.581c-0.342-0.359-0.594-0.654-0.594-0.654
					l-0.021-0.478c0,0,0.225-0.267,0.719-0.578c0.248-0.152,0.564-0.34,0.951-0.457c0.388-0.092,0.852-0.151,1.371-0.154
					c0.514,0.009,1.051,0.183,1.625,0.38c0.542,0.228,1.059,0.599,1.512,1.036c0.365,0.474,0.752,1.019,0.925,1.596
					c0.213,0.572,0.406,1.133,0.542,1.679c0.181,0.542,0.271,1.081,0.369,1.605c0.11,0.521,0.111,1.039,0.157,1.529
					c0.001,0.492,0.027,0.96-0.003,1.403c-0.03,0.443-0.049,0.856-0.098,1.236c-0.173,1.514-0.475,2.485-0.475,2.485
					L248.277,370.005z"/>
			</g>
		</g>
		<g>
			<g>
				<path style="fill:#F39200;" d="M240.27,371.722c0,0,0.097-0.902,0.243-2.254c0.068-0.667,0.123-1.443,0.175-2.253
					c0.026-0.815,0.091-1.657,0.063-2.473c-0.017-0.406-0.075-0.812-0.173-1.187c-0.092-0.38-0.195-0.721-0.21-1.032
					c-0.014-0.313,0.021-0.587,0.098-0.858c0.054-0.258,0.136-0.509,0.215-0.749c0.173-0.479,0.304-0.978,0.341-1.43
					c0.029-0.235,0.01-0.413,0.017-0.569c-0.003-0.154-0.005-0.236-0.005-0.236l0.275-0.391c0,0,0.084-0.012,0.243-0.035
					c0.157-0.013,0.41-0.037,0.69,0.028c0.141,0.032,0.305,0.069,0.481,0.126c0.155,0.07,0.328,0.155,0.517,0.256
					c0.347,0.214,0.718,0.516,1.031,0.898c0.316,0.382,0.573,0.834,0.768,1.326c0.191,0.483,0.309,1.01,0.306,1.53
					c-0.002,0.521-0.128,1.042-0.309,1.532c-0.171,0.475-0.346,0.957-0.52,1.439c-0.329,0.936-0.697,1.819-1.132,2.603
					c-0.413,0.79-0.857,1.485-1.249,2.068c-0.794,1.163-1.432,1.857-1.432,1.857L240.27,371.722z"/>
			</g>
		</g>
		<path style="fill:#5F3C28;" d="M213.028,304.618c0.796,13.168,26.617,22.32,26.617,22.32s24.153-7.309,22.736-30.771
			c-0.794-13.169-11.715-17.755-25.619-16.913C222.858,280.093,212.232,291.449,213.028,304.618z"/>
	</g>
	<path style="fill:#5F3C28;" d="M292.255,264.433c0,29.889-32.004,54.119-71.484,54.119c-39.478,0-71.489-24.23-71.489-54.119
		c0-29.889,32.011-70.416,71.489-70.416C260.251,194.017,292.255,234.544,292.255,264.433z"/>
	<path style="fill:#C13A2A;" d="M247.474,146.34h-46.748c12.688,22.517-14.999,43.806-19.17,54.64
		c-4.886,12.686,4.952,16.568,4.952,16.568s-3.075,8.012,5.015,11.688c6.041,2.745,18.112-3.751,18.112-3.751
		s2.935,7.962,10.151,7.78c11.267-0.285,11.125-12.341,11.125-12.341s6.932,12.475,18.08,9.512c8.381-2.227,9.282-15.66,9.282-15.66
		s2.076-3.817,1.853-17.839C260.017,190.071,230.497,168.856,247.474,146.34z"/>
	<path style="fill:#C13A2A;" d="M262.989,115.321c0,22.07-17.893,39.961-39.961,39.961c-22.07,0-39.964-17.891-39.964-39.961
		c0-22.07,17.893-39.962,39.964-39.962C245.097,75.359,262.989,93.251,262.989,115.321z"/>
	<path style="fill:#F9C4A8;" d="M253.63,118.152c3.524,8.052,0.228,14.357-8.301,13.722c-8.523-0.632-20.146-11.32-19.519-19.764
		c0.629-8.442,6.124-16.626,14.446-15.015C248.577,98.706,248.952,107.456,253.63,118.152z"/>
	<g>
		<path style="fill:#FFFFFF;" d="M225.784,112.964c0,3.823,2.988,6.924,6.668,6.924c3.68,0,6.666-3.101,6.666-6.924
			c0-3.825-2.986-6.924-6.666-6.924C228.773,106.04,225.784,109.139,225.784,112.964z"/>
		<path style="fill:#301B16;" d="M225.784,112.964c0,2.39,1.868,4.329,4.172,4.329c2.299,0,4.164-1.938,4.164-4.329
			c0-2.392-1.865-4.33-4.164-4.33C227.652,108.634,225.784,110.572,225.784,112.964z"/>
		<path style="fill:#FFFFFF;" d="M230.632,110.799c0,1.195,0.971,2.164,2.166,2.164c1.196,0,2.164-0.97,2.164-2.164
			c0-1.195-0.968-2.165-2.164-2.165C231.603,108.634,230.632,109.604,230.632,110.799z"/>
	</g>
	<path style="fill:#F9C4A8;" d="M194.058,119.595c-3.52,8.051-0.227,14.356,8.302,13.721c8.522-0.632,20.144-11.32,19.519-19.764
		c-0.631-8.443-6.127-16.627-14.445-15.016C199.109,100.149,198.733,108.898,194.058,119.595z"/>
	<g>
		<path style="fill:#FFFFFF;" d="M221.903,114.405c0,3.824-2.986,6.924-6.67,6.924c-3.678,0-6.663-3.1-6.663-6.924
			c0-3.824,2.985-6.924,6.663-6.924C218.917,107.481,221.903,110.581,221.903,114.405z"/>
		<path style="fill:#301B16;" d="M221.903,114.405c0,2.391-1.867,4.33-4.171,4.33c-2.3,0-4.165-1.939-4.165-4.33
			c0-2.392,1.865-4.329,4.165-4.329C220.036,110.077,221.903,112.014,221.903,114.405z"/>
		<path style="fill:#FFFFFF;" d="M217.056,112.241c0,1.195-0.971,2.164-2.166,2.164c-1.195,0-2.164-0.97-2.164-2.164
			s0.969-2.164,2.164-2.164C216.085,110.077,217.056,111.046,217.056,112.241z"/>
	</g>
	<g>
		<path style="fill:#B41F1C;" d="M236.556,123.603c-5.22-7.736-13.097-4.792-13.111-2.409c3.457,2.941,8.426,2.303,9.352,5.833
			c3.3,12.58,0.797,26.579,6.92,36.709c10.701,17.695,30.243,6.078,16.924-8.013C247.39,145.938,241.73,131.271,236.556,123.603z"/>
		<path style="fill:#FFFFFF;" d="M239.597,143.839c-0.395-5.77-2.162-10.895-4.972-15.633c3.196,11.381-0.466,24.852,4.564,34.502
			C243.625,157.492,240.005,149.813,239.597,143.839z"/>
		<path style="fill:#DBC3C8;" d="M256.64,155.723c-9.25-9.785-14.759-22.883-19.315-30.935c-3.185-5.628-7.986-6.96-11.54-5.768
			c2.611,2.098,7.012,1.512,9.178,4.582c1.983,2.816,4.855,7.495,5.925,10.746c2.087,6.343,3.961,10.574,7.189,16.386
			c1.49,2.68,3.313,5.66,3.804,8.738c1.074,6.783-2.242,9.571-7.611,9.747C254.961,178.344,268.22,167.974,256.64,155.723z"/>
	</g>
	<path style="fill:#F39200;" d="M234.14,125.947c0,3.841-9.621,21.59-9.621,21.59s-9.627-17.75-9.627-21.59
		c-0.124-2.407,4.309-4.786,9.623-4.786C229.831,121.161,233.586,123.636,234.14,125.947z"/>
	<path style="fill:#EF7B00;" d="M229.284,125.051c-0.609,0.571-1.064,1.191-1.205,2.032c-0.096,0.577-0.405,1.564-0.141,2.116
		c0.021,0.047,0.061,0.067,0.113,0.067c0.525-0.012,0.871-0.594,1.181-0.956c0.212-0.246,0.423-0.489,0.644-0.726
		c0.25-0.27,0.369-0.632,0.642-0.887C231.476,125.799,230.25,124.146,229.284,125.051z"/>
	<path style="fill:#EF7B00;" d="M219.316,125.051c0.61,0.572,1.065,1.193,1.204,2.032c0.095,0.577,0.406,1.564,0.143,2.115
		c-0.023,0.047-0.063,0.068-0.114,0.067c-0.526-0.012-0.872-0.594-1.182-0.956c-0.21-0.246-0.421-0.489-0.644-0.726
		c-0.251-0.27-0.37-0.633-0.642-0.886C217.124,125.8,218.349,124.146,219.316,125.051z"/>
	<g>
		<path style="fill:#201A1F;" d="M260.733,91.148c0.12,4.805-17.371,9.141-39.072,9.685c-21.699,0.544-39.389-2.911-39.509-7.715
			c-0.017-0.657-0.009-2.63-0.009-2.63s20.35-6.587,39.082-7.057c18.616-0.465,39.432,4.62,39.432,4.62
			S260.717,90.466,260.733,91.148z"/>
		<path style="fill:#352E35;" d="M260.657,88.051c0.119,4.805-17.375,9.142-39.074,9.685c-21.699,0.545-39.388-2.91-39.508-7.715
			c-0.123-4.806,17.371-9.142,39.074-9.686C242.849,79.792,260.538,83.246,260.657,88.051z"/>
		<path style="fill:#D7CDC5;" d="M214.452,91.459c1.734,0.144,1.851,2.154,3.488,2.785c2.031,0.784,7.159,0.28,9.555,0.157
			c2.011-0.104,0.483-2.105,2.115-3.368c2.044-1.583,5.905-1.782,8.662-1.997c2.288-0.178,6.236-1.5,7.512-2.403
			c2.081-1.474,2.146-3.354,1.537-5.142c-6.603-0.931-14.798-1.378-23.666-1.155c-11.901,0.297-22.527,1.738-29.688,3.768
			C195.608,93.427,207.237,90.859,214.452,91.459z"/>
		<path style="fill:#3E363E;" d="M247.264,81.483c2.225,2.488-6.745,6.977-20.824,7.33c-14.08,0.352-30.359-1.35-30.442-4.685
			c6.375-10.491,6.201-30.594,6.201-30.594l37.819-0.945C240.018,52.588,236.894,69.884,247.264,81.483z"/>
		<path style="fill:#D7CDC5;" d="M227.495,85.454c-6.457-1.257-12.648-4.925-15.766-10.875c-2.928-5.593-4.668-14.795-1.47-21.248
			l-8.061,0.203c0,0,0.174,20.104-6.201,30.594c0.083,3.335,16.362,5.037,30.442,4.685c12.99-0.327,21.75-4.294,21.163-6.747
			C241.087,84.049,234.303,86.778,227.495,85.454z"/>
		<path style="fill:#E94E1B;" d="M244.178,77.394c0,0,1.118,2.843-16.933,5.279c-14.327,1.936-28.779-3.625-28.779-3.625
			c-2.354-0.641-1.954,2.004-1.162,2.657c-1.434,0.25-2.301,1.046-1.307,2.423c0.083,3.335,16.384,5.921,30.464,5.569
			c14.081-0.353,23.179-5.872,20.803-8.214c0.336-2.043-0.84-0.849-1.244-1.279C246.145,78.702,246.06,77.158,244.178,77.394z"/>
		<path style="fill:#DCC2BC;" d="M247.264,81.483c0.336-2.043-0.84-0.849-1.244-1.279c0.097-1.174,0.153-2.506-0.859-2.57
			c0.022,0.415,0.014,0.837-0.064,1.276c-0.131,0.73-0.561,2.123,0.605,2.176c0.273,0.012,0.69,0.093,0.886,0.31
			c0.391,0.439,0.708,1.039,0.414,1.64c-0.93,1.9-11.049,4.093-12.926,4.086c-3.139-0.012-2.889-3.413-4.744-4.743
			c-2.364,0.526-2.367,0.104-6.545,0.668c-0.919,0.125-5.695-0.233-6.61-0.167c-0.214,3.332-0.985,4.964-2.859,5.097
			c-5.097,0.363-7.597-0.855-9.632-1.72c-2.027-0.86-4.837-1.018-5.73-3.29c-0.101-0.252-0.004-0.594,0.186-0.781
			c0.23-0.225-0.018-2.186-0.146-3.226c-1.816-0.171-1.426,2.138-0.689,2.743c-1.434,0.25-2.301,1.046-1.307,2.423
			c0.083,3.335,16.384,5.921,30.464,5.569C240.542,89.344,249.64,83.825,247.264,81.483z"/>
		<path style="fill:#352E35;" d="M240.018,52.588c0.045,1.824-12.567,3.656-20.954,3.866c-8.392,0.211-16.818-1.098-16.865-2.921
			c-0.045-1.825,8.309-3.473,16.699-3.684C227.285,49.639,239.973,50.765,240.018,52.588z"/>
		<path style="fill:#C2AAA0;" d="M221.8,54.837c-8.389,0.21-16.816-1.097-16.864-2.921c-0.003-0.124,0.032-0.248,0.091-0.369
			c-1.761,0.585-2.796,1.271-2.778,1.985c0.043,1.823,8.474,3.132,16.864,2.921c7.818-0.195,20.068-1.826,20.865-3.498
			C237.245,53.864,226.905,54.709,221.8,54.837z"/>
		<g>
			<path style="fill:#F8AB08;" d="M226.388,80.017l-8.473-0.021c-0.851-0.003-1.537,0.683-1.539,1.53l-0.023,9.273
				c-0.003,0.847,0.684,1.537,1.53,1.54l8.473,0.021c0.849,0.002,1.54-0.684,1.54-1.53l0.024-9.274
				C227.919,80.708,227.233,80.02,226.388,80.017z M225.488,88.885c-0.002,0.494-0.401,0.894-0.895,0.891l-4.933-0.012
				c-0.495-0.002-0.894-0.403-0.891-0.896l0.013-5.399c0-0.493,0.403-0.892,0.895-0.892l4.932,0.012
				c0.496,0.003,0.895,0.404,0.892,0.896L225.488,88.885z"/>
			<path style="fill:#D5BEB3;" d="M227.895,90.629c-0.971,0.727-2.141,1.245-3.546,1.531c-0.327,0.067-0.684,0.133-1.049,0.191
				l3.055,0.009c0.849,0.002,1.54-0.684,1.54-1.53V90.629z"/>
			<path style="fill:#D5BEB3;" d="M217.594,90.41c-0.945-2.5-1.403-7.977,0.789-10.413l-0.468-0.001
				c-0.851-0.003-1.537,0.683-1.539,1.53l-0.023,9.273c-0.003,0.847,0.684,1.537,1.53,1.54l1.929,0.004
				C218.838,92.086,218.014,91.519,217.594,90.41z"/>
			<g>
				<path style="fill:#FFFFFF;" d="M218.149,84.26l-0.014,5.305c-0.001,0.485,0.391,0.879,0.876,0.881l4.849,0.012
					c0.354,0.001,0.651-0.21,0.791-0.509c-0.116,0.056-0.24,0.094-0.38,0.094l-4.848-0.011c-0.483-0.001-0.876-0.396-0.876-0.881
					l0.014-5.304c0-0.132,0.033-0.254,0.088-0.366C218.357,83.621,218.149,83.914,218.149,84.26z"/>
				<path style="fill:#FFFFFF;" d="M217.501,80.646l8.324,0.02c0.833,0.003,1.509,0.68,1.505,1.512l-0.021,9.112
					c-0.002,0.308-0.094,0.594-0.254,0.833c0.401-0.27,0.667-0.728,0.667-1.248l0.021-9.111c0.002-0.833-0.675-1.51-1.504-1.513
					l-8.326-0.021c-0.524-0.001-0.988,0.266-1.256,0.672C216.896,80.737,217.187,80.644,217.501,80.646z"/>
			</g>
			<path style="fill:#FCBE00;" d="M223.282,85.842c-0.003,0.675-0.55,1.219-1.225,1.218l0,0c-0.674-0.002-1.221-0.55-1.219-1.225
				l0.018-6.509c0-0.675,0.551-1.22,1.225-1.218l0,0c0.673,0.001,1.218,0.549,1.218,1.224L223.282,85.842z"/>
			<path style="fill:#D5BEB3;" d="M222.382,86.083c-1.978-2.111-1.466-5.376-0.609-7.933c-0.523,0.137-0.914,0.607-0.916,1.176
				l-0.018,6.509c-0.002,0.674,0.545,1.222,1.219,1.225c0.514,0.001,0.948-0.313,1.134-0.759
				C222.928,86.389,222.609,86.327,222.382,86.083z"/>
			<path style="fill:#FFFFFF;" d="M223.044,85.496c-0.004,0.552-0.129,0.999-0.279,1l0,0c-0.155-0.001-0.277-0.449-0.277-1.001
				l0.013-5.327c0.003-0.551,0.129-0.999,0.281-0.998l0,0c0.153-0.001,0.276,0.448,0.272,0.998L223.044,85.496z"/>
		</g>
	</g>
</g>
</svg>
